# xmcd
#
# Track frame offsets:
#	150
#	15191
#	32229
#	48687
#	65619
#	79108
#	93118
#	107460
#	122022
#	139345
#	154569
#	169107
#	182377
#	199931
#	215147
#	230245
#	244154
#	259288
#	275327
#	287723
#	300022
#	317406
#
# Disc length: 4429 seconds
#
# Revision: 0
# Processed by: cddbd v1.5.2PL0 Copyright (c) Steve Scherf et al.
# Submitted via: EasyCDDAExtractor 16.0.9.1
#
DISCID=2e114b16
DTITLE=Hott Country Trakks Volume 233 Canada
DYEAR=2015
DGENRE=country
TTITLE0=Carrie Underwood\n - Smoke Break\n
TTITLE1=Brad Paisley\n - Country Nation\n
TTITLE2=Paul Brandt ft. Jess Moskaluke\n - I'm An Open Road\n
TTITLE3=Jason Aldean\n - Gonna Know We Were Here\n
TTITLE4=Dallas Smith\n - Kids With Cars\n
TTITLE5=Reba\n - Until They Don't Love You\n
TTITLE6=Michael Ray\n - Real Men Love Jesus\n
TTITLE7=Jojo Mason\n - It's All Good\n
TTITLE8=Sam Hunt\n - Break Up In A Small Town\n
TTITLE9=Cory Marquardt\n - This Man\n
TTITLE10=Little Big Town\n - Pain Killer\n
TTITLE11=Tyler Farr\n - Better In Boots\n
TTITLE12=The Band Perry\n - Live Forever\n
TTITLE13=William Michael Morgan\n - I Met A Girl\n
TTITLE14=Scotty McCreery\n - Southern Belle\n
TTITLE15=Mo Pitney\n - Boy And A Girl Thing\n
TTITLE16=Rainey Qualley\n - Me and Johnny Cash\n
TTITLE17=Kristian Bush\n - Light Me Up\n
TTITLE18=Olivia Lane\n - You Part 2\n
TTITLE19=Amy Metcalfe ft. Tristan Horncastle\n - Whiskey Won't Fix Me\n
TTITLE20=Andrew Hyatt\n - Livin' The Dream\n
TTITLE21=Cold Creek Country\n - Our Town\n
EXTD=
EXTT0=
EXTT1=
EXTT2=
EXTT3=
EXTT4=
EXTT5=
EXTT6=
EXTT7=
EXTT8=
EXTT9=
EXTT10=
EXTT11=
EXTT12=
EXTT13=
EXTT14=
EXTT15=
EXTT16=
EXTT17=
EXTT18=
EXTT19=
EXTT20=
EXTT21=
PLAYORDER=
